<svg width="150" height="40" viewBox="0 0 150 40" fill="none" xmlns="http://www.w3.org/2000/svg">
  <path d="M10 10H30C35 10 35 20 30 20H15C10 20 10 30 15 30H35" stroke="#3498db" stroke-width="3" stroke-linecap="round" stroke-linejoin="round"/>
  <path d="M45 14.5H47.264C48.7573 14.5 49.9573 14.844 50.864 15.532C51.7707 16.22 52.392 17.188 52.728 18.436C52.888 19.012 52.968 19.5693 52.968 20.108C52.968 20.6467 52.888 21.204 52.728 21.78C52.392 23.028 51.7707 23.996 50.864 24.684C49.9573 25.372 48.7573 25.716 47.264 25.716H45V14.5ZM47.264 24.044C48.2933 24.044 49.0973 23.8093 49.676 23.34C50.2547 22.8707 50.6547 22.2173 50.876 21.38C50.98 20.9533 51.032 20.5267 51.032 20.1C51.032 19.6733 50.98 19.2467 50.876 18.82C50.6547 17.9827 50.2547 17.3293 49.676 16.86C49.0973 16.3907 48.2933 16.156 47.264 16.156H46.92V24.044H47.264Z" fill="#333333"/>
  <path d="M54.7788 20.108C54.7788 19.324 54.8508 18.644 54.9948 18.068C55.2908 16.8387 55.8428 15.8707 56.6508 15.164C57.4588 14.4573 58.4748 14.104 59.6988 14.104C60.9228 14.104 61.9388 14.4573 62.7468 15.164C63.5548 15.8707 64.1068 16.8387 64.4028 18.068C64.5468 18.644 64.6188 19.324 64.6188 20.108C64.6188 20.892 64.5468 21.572 64.4028 22.148C64.1068 23.3773 63.5548 24.3453 62.7468 25.052C61.9388 25.7587 60.9228 26.112 59.6988 26.112C58.4748 26.112 57.4588 25.7587 56.6508 25.052C55.8428 24.3453 55.2908 23.3773 54.9948 22.148C54.8508 21.572 54.7788 20.892 54.7788 20.108ZM56.7308 20.108C56.7308 20.7453 56.7788 21.276 56.8748 21.7C57.0668 22.548 57.4068 23.2173 57.8948 23.708C58.3828 24.1987 58.9788 24.444 59.6988 24.444C60.4188 24.444 61.0148 24.1987 61.5028 23.708C61.9908 23.2173 62.3308 22.548 62.5228 21.7C62.6188 21.276 62.6668 20.7453 62.6668 20.108C62.6668 19.4707 62.6188 18.94 62.5228 18.516C62.3308 17.668 61.9908 16.9987 61.5028 16.508C61.0148 16.0173 60.4188 15.772 59.6988 15.772C58.9788 15.772 58.3828 16.0173 57.8948 16.508C57.4068 16.9987 57.0668 17.668 56.8748 18.516C56.7788 18.94 56.7308 19.4707 56.7308 20.108Z" fill="#333333"/>
  <path d="M67.0339 14.5H68.9539V23.948H74.0819V25.716H67.0339V14.5Z" fill="#333333"/>
  <path d="M82.2238 25.716L81.9678 24.108H81.9198C81.5918 24.6867 81.1518 25.116 80.5998 25.396C80.0478 25.676 79.4118 25.816 78.6918 25.816C77.5398 25.816 76.6478 25.5333 76.0158 24.968C75.3838 24.4027 75.0678 23.564 75.0678 22.452C75.0678 20.0693 76.8518 18.8373 80.4198 18.756L81.9198 18.724V18.164C81.9198 17.4467 81.7518 16.9267 81.4158 16.604C81.0798 16.2813 80.5598 16.12 79.8558 16.12C79.0638 16.12 78.1718 16.364 77.1798 16.852L76.5398 15.42C76.9878 15.1667 77.4998 14.9613 78.0758 14.804C78.6518 14.6467 79.2278 14.568 79.8038 14.568C81.0918 14.568 82.0518 14.856 82.6838 15.432C83.3158 16.008 83.6318 16.9133 83.6318 18.148V25.716H82.2238ZM79.1278 24.264C79.9998 24.264 80.6958 24.0267 81.2158 23.552C81.7358 23.0773 81.9958 22.4333 81.9958 21.62V20.14L80.6798 20.172C79.6558 20.1933 78.9038 20.3427 78.4238 20.62C77.9438 20.8973 77.7038 21.3533 77.7038 21.988C77.7038 22.4973 77.8638 22.8867 78.1838 23.156C78.5038 23.4253 79.1838 24.264 79.1278 24.264Z" fill="#333333"/>
  <path d="M93.2149 25.716H91.5029V19.372C91.5029 18.5853 91.3429 17.988 91.0229 17.58C90.7029 17.172 90.2149 16.968 89.5589 16.968C88.6829 16.968 88.0469 17.2467 87.6509 17.804C87.2549 18.3613 87.0569 19.2693 87.0569 20.528V25.716H85.3449V14.5H87.0569V16.124C87.0569 16.4253 87.0409 16.8907 87.0089 17.52H87.0889C87.3609 17.0587 87.7329 16.7013 88.2049 16.448C88.6769 16.1947 89.2209 16.068 89.8369 16.068C91.7329 16.068 92.6949 17.0507 92.7589 19.016C92.7642 19.1225 92.7674 19.2293 92.7688 19.3362C92.7695 19.3816 92.7699 19.4271 92.7699 19.4727L93.2149 25.716Z" fill="#333333"/>
  <path d="M102.666 25.716H100.954V20.<svg width="150" height="40" viewBox="0 0 150 40" fill="none" xmlns="http://www.w3.org/2000/svg">
    <path d="M10 10H30C35 10 35 20 30 20H15C10 20 10 30 15 30H35" stroke="#3498db" stroke-width="3"/>
    <text x="45" y="25" font-family="Poppins" font-size="18" font-weight="600" fill="#333">ShopEase</text>
</svg>
